/* XPM */
static char * coin_xpm[] = {
"32 32 5 1",
" 	c #38002C",
".	c #222A5C",
"+	c #249FDE",
"@	c #20D6C7",
"#	c #F5FFE8",
"                   .            ",
"    .        +@@                ",
"            + ##@               ",
"    .       +  +#+              ",
"  ...       +  +#+         .... ",
"     .      +  ++#+       .     ",
"      .        ++@#      .      ",
"               .@@#     ..      ",
"              . +##++    .      ",
"         .   ++++++++    .      ",
"          ...+@#@+ ++    ..     ",
"          .  ++#+@       .      ",
"          .  ++#+@.             ",
"  .           +@#@+             ",
"  ..           ++#+             ",
"  .           ++@##++           ",
" ..       ++++@#@++         ....",
"  .       @@@@#@#@#++    .      ",
"          ++@@++@##++   .       ",
"          ++++..+@#++ ..        ",
"     .   .++++  +@#++  .        ",
"      ...        +@++  .        ",
"       .       +++@++           ",
"       .      ++@#+             ",
"       .      +@##+             ",
"       .     +@@#++             ",
"        .   +@@#@+     .        ",
"..           +@@+........     ..",
"             +@@+  .           .",
"              @                 ",
"                   .            ",
"    .              .            "};
