/* XPM */
static char * dirt_xpm[] = {
"32 32 2 1",
" 	c #38002C",
".	c #222A5C",
"                   .            ",
"    .                           ",
"                                ",
"    .                           ",
"  ...                      .... ",
"     .                    .     ",
"      .                  .      ",
"               .        ..      ",
"              .          .      ",
"         .    .          .      ",
"          .....          ..     ",
"          .    .         .      ",
"          .     ...             ",
"  .             .               ",
"  ..            .               ",
"  .             .               ",
" ..                         ....",
"  .                      .      ",
"          .     .       .       ",
"          ........    ..        ",
"     .   .             .        ",
"      ...              .        ",
"       .                        ",
"       .                        ",
"       .                        ",
"       .                        ",
"        .              .        ",
"..               ........     ..",
"                   .           .",
"                                ",
"                   .            ",
"    .              .            "};
