/* XPM */
static char * Idle_2_xpm[] = {
"44 78 20 1",
" 	c None",
".	c #000000",
"+	c #ECFFE8",
"@	c #FFB269",
"#	c #FFEF76",
"$	c #F16A62",
"%	c #00AF19",
"&	c #A2ABC6",
"*	c #D42076",
"=	c #FF507B",
"-	c #68104C",
";	c #FFC4A1",
">	c #EA2743",
",	c #B94B57",
"'	c #9F0726",
")	c #F51321",
"!	c #4B071B",
"~	c #001313",
"{	c #E0E2EA",
"]	c #A7322B",
"                   ....                     ",
"                  .++++...                  ",
"                   .@##+++..                ",
"                    .@####++.               ",
"                     .$@####+.  ..          ",
"                     .$$@@###+. .+.         ",
"                ...   ..$@@##+. .#+.        ",
"               .@@@.. .+.$@@##+.##+.        ",
"                .$@@@..+#.$@##+.###+.       ",
"                 .$@@@.+#@.$@#.###.+.       ",
"                 .$$@.+##.#.@.+.#.#.+.      ",
"                  .$$.+#%@#.@.+.#.@.+.      ",
"                  .$.+##%@##.&++.@$.#.      ",
"                   .+##.#%@#.&++&...#.      ",
"                 ..+##.@#%@.@.+&+.##..      ",
"               ..++%%.@.*=%.@.&+&&.@@#.     ",
"              .++####%%*--%.@.+&++.@#@@.    ",
"             .+#####.##%%.*.@.&...#####.    ",
"            .+#####.##=--%.#$@.$@###@.@#.   ",
"           .+######.##*=*.###$#@###@.$@#.   ",
"           .+######.@#%%%.@###@###@.;.$@.   ",
"          .+######@.%%##.@#@@@####.;..$@.   ",
"          .+######%%.###.@#######@..+.@.    ",
"          .+#####%@$.###.@@######.;;>;.     ",
"         .+######@$$.@#@@.@@@@..@.>>;;.     ",
"         .+#####@@$$.@@..@....$#@.;;;;.     ",
"        ..+#####@@$.$..$.@$$$$##.$;;;;.     ",
"      ..+.+#####@@$.$$$$$.@####@.;$...      ",
"     .++#.+#####@@$.$$$$,@.@@##@.;.         ",
"    .++##.+#####@@$$.$$$,@@..@@.;;.         ",
"   .++###@.######@@$.$$,@@@@@..;;$.         ",
"   .++###@.######@@$.$$,@@@@.;;;;;$..       ",
"  .++####@$.######@@$.$$,@@@.....;;;;.      ",
"  .++#####@.@######@$.$$,@@.'''''....).     ",
"  .+######@$.@######@$.$$,@@.''''''''').    ",
"  .+#######@$.@@#####@$.$$,,.''.!''''').    ",
"  .+########@$.@@@####@@..$$.''.!!!'''').   ",
"   .#########@@..@@@####@@@@.''.!.!!!'').   ",
"  ..@##########@@..@@@######.''..~...!!'.   ",
" .+#.##############$$$@@@###.!'.~~~~~...    ",
" .+#.@###############@$$$$@..!').~~~~~~~.   ",
".+###.@#################@@@..!').~~~~~~~.   ",
".+####.@@#################.~.!').~~~~~~~.   ",
".@#####..@@@##############.~.!'').~~~~~~.   ",
".@#######..@@@@@@########.~~~.!')...~~~~.   ",
".@#########$$$$@@@@@@@@@@.~~~.!').''....!.  ",
" .@############$$$$$@@@#.~~~~.!'').'''''!.  ",
" .@####################.~~~~~.!'').!'''.!.  ",
"  .@##################@.~~~~~.!!'').!''.!.  ",
"  .@@###############@@.~~~~~~.!!'''..!.!!.  ",
"   .$@@#########@@@@$$.~~~~~~.!!!'...!.!!.  ",
"    .$$@@@@@@@@@@@$$.@.~~~~~~.!!!.;.).!!!.  ",
"     ..$$$@@@@@$$$..@$$...~~~.!!.;;.).!!!.  ",
"       ...$$$$$...@@$$$$$$..~.!!.;;.).!!!.  ",
"          .....@@@$$$$$$$.  .'.!.;;;.;.!!.  ",
"            .$$$$$$$$$$..   .'.!!.;;.;.!!.  ",
"             ..$$$$$...     .''.!.;;.;.!!.  ",
"               .....        .''!.....;.!!.  ",
"                            .'!!!!!!.;;.!.  ",
"                           .''!!!!!.$;;.!.  ",
"                           .''!!!!!.$;;.!.  ",
"                           .''!!!!!.$;;.!.  ",
"                           .'!!!!!.$;;.!.   ",
"                          .''!!!!!.$;;.!.   ",
"                          .''!!!!!.$;;.!.   ",
"                          .''!!!!!.$;.!!.   ",
"                          .'!!!!!.$;;.!!.   ",
"                         .''!!!!!.$;.!!!.   ",
"                         .''!!!!!.$;.!!!.   ",
"                         .''!!!!!.$.!!!.    ",
"                        .''!!!!!.$;.!!!.    ",
"                        .''!!!!!.;.!!!!.    ",
"                        .''!!!!!.;.!!!!.    ",
"                       .''!!!!!.{].!!!!.    ",
"                       .''!!!!!.{{..!!!.    ",
"                      .''!!!!!!.{{.{.!!.    ",
"                    ..''!!!!!!!.{{.{{...    ",
"                   .'''!!!!!!!!.{]{.{{{.    "};
