/* XPM */
static char * Idle_xpm[] = {
"24 32 333 2",
"  	c None",
". 	c #A8A694",
"+ 	c #C1C2A3",
"@ 	c #8B9286",
"# 	c #4F534C",
"$ 	c #814D25",
"% 	c #DDB76D",
"& 	c #FEEDA1",
"* 	c #E3E0AA",
"= 	c #979C8C",
"- 	c #000000",
"; 	c #0B0C0A",
"> 	c #7E5434",
", 	c #624027",
"' 	c #75443E",
") 	c #D08F6A",
"! 	c #FED67C",
"~ 	c #E8E4AD",
"{ 	c #524F35",
"] 	c #D2D2AB",
"^ 	c #BE7C56",
"/ 	c #E29863",
"( 	c #916F54",
"_ 	c #DED3A5",
": 	c #D18860",
"< 	c #F9E38E",
"[ 	c #CFC787",
"} 	c #EBE195",
"| 	c #9DA495",
"1 	c #542B28",
"2 	c #C1755E",
"3 	c #C3BCA1",
"4 	c #DCCE74",
"5 	c #C1A95F",
"6 	c #C5A07D",
"7 	c #CAC591",
"8 	c #BC9C5B",
"9 	c #A4AB98",
"0 	c #ABA189",
"a 	c #EADF94",
"b 	c #CBC165",
"c 	c #E6C66F",
"d 	c #A59D99",
"e 	c #D7DFD3",
"f 	c #A48156",
"g 	c #A59B52",
"h 	c #9A9F8E",
"i 	c #D7D6AD",
"j 	c #D6DB8C",
"k 	c #A5A051",
"l 	c #9E5C5F",
"m 	c #7B783F",
"n 	c #BD9173",
"o 	c #D1D8D5",
"p 	c #AFA997",
"q 	c #F5C373",
"r 	c #B0834E",
"s 	c #9FA38D",
"t 	c #F3EAA0",
"u 	c #FFEE84",
"v 	c #CFC169",
"w 	c #EFC87B",
"x 	c #72724A",
"y 	c #AA995C",
"z 	c #CB966B",
"A 	c #B58B68",
"B 	c #E8D777",
"C 	c #E4C370",
"D 	c #E0BF6D",
"E 	c #24210D",
"F 	c #484C44",
"G 	c #DEDCAB",
"H 	c #FFEE82",
"I 	c #FFEC82",
"J 	c #B79E57",
"K 	c #CBC96B",
"L 	c #A29253",
"M 	c #F5CC76",
"N 	c #FBD07A",
"O 	c #FFE580",
"P 	c #E7C973",
"Q 	c #A57962",
"R 	c #D89465",
"S 	c #24180A",
"T 	c #727669",
"U 	c #FBF3AD",
"V 	c #FFEE83",
"W 	c #E6D975",
"X 	c #927C48",
"Y 	c #F4E07C",
"Z 	c #CDA760",
"` 	c #FED37A",
" .	c #FDE47F",
"..	c #F4E17C",
"+.	c #BB8963",
"@.	c #CBA38F",
"#.	c #A16F4E",
"$.	c #B4BAA5",
"%.	c #F9B372",
"&.	c #9A544F",
"*.	c #CC945C",
"=.	c #B0744D",
"-.	c #B77554",
";.	c #B17453",
">.	c #D5B167",
",.	c #C48872",
"'.	c #FBBD9D",
").	c #826150",
"!.	c #81867A",
"~.	c #CFD1AF",
"{.	c #C0C5AA",
"].	c #F8AB6F",
"^.	c #94514C",
"/.	c #B8675F",
"(.	c #B56C5C",
"_.	c #D9A363",
":.	c #F8D87B",
"<.	c #D2A663",
"[.	c #C79079",
"}.	c #654B3D",
"|.	c #E2E9D0",
"1.	c #FEF090",
"2.	c #C6A778",
"3.	c #FDC476",
"4.	c #B06B55",
"5.	c #B4645D",
"6.	c #D78D66",
"7.	c #F0A369",
"8.	c #BF8660",
"9.	c #E5AC8D",
"0.	c #BA826E",
"a.	c #A9B09F",
"b.	c #F9F6BF",
"c.	c #ECB870",
"d.	c #D3B667",
"e.	c #FFE881",
"f.	c #E9A76D",
"g.	c #97544D",
"h.	c #C47962",
"i.	c #B7784E",
"j.	c #6B3835",
"k.	c #986959",
"l.	c #C39179",
"m.	c #C3937A",
"n.	c #ADB5A4",
"o.	c #FFEF8C",
"p.	c #FEE480",
"q.	c #CA8B5F",
"r.	c #E8B66D",
"s.	c #FFE380",
"t.	c #FFE981",
"u.	c #D29764",
"v.	c #A45E53",
"w.	c #A66456",
"x.	c #601526",
"y.	c #4F1322",
"z.	c #68172B",
"A.	c #6E1526",
"B.	c #79131C",
"C.	c #5C6055",
"D.	c #F8DF7E",
"E.	c #FEE380",
"F.	c #E1AF69",
"G.	c #CA8C58",
"H.	c #F2BC70",
"I.	c #FFDD7E",
"J.	c #F3CE76",
"K.	c #F2C374",
"L.	c #582224",
"M.	c #240C16",
"N.	c #26121A",
"O.	c #481221",
"P.	c #871927",
"Q.	c #160101",
"R.	c #51554E",
"S.	c #E2DEA9",
"T.	c #C8AB60",
"U.	c #FEED82",
"V.	c #EED17A",
"W.	c #E7AA6F",
"X.	c #E6A56E",
"Y.	c #DDB86B",
"Z.	c #6F2024",
"`.	c #161417",
" +	c #131E1E",
".+	c #111E1E",
"++	c #151717",
"@+	c #010101",
"#+	c #8B8070",
"$+	c #FFED98",
"%+	c #F0DF7A",
"&+	c #CEA460",
"*+	c #FAD479",
"=+	c #FFE681",
"-+	c #FFEF83",
";+	c #A97143",
">+	c #611525",
",+	c #131719",
"'+	c #0E1A1A",
")+	c #122020",
"!+	c #121F1F",
"~+	c #000101",
"{+	c #8C5B3A",
"]+	c #FDDD7D",
"^+	c #FCEB81",
"/+	c #D0BD69",
"(+	c #E6A36D",
"_+	c #EEA76E",
":+	c #F9BD74",
"<+	c #FBCC78",
"[+	c #FFCF79",
"}+	c #F1CE75",
"|+	c #944A32",
"1+	c #481523",
"2+	c #570F20",
"3+	c #541021",
"4+	c #3B141B",
"5+	c #291519",
"6+	c #200A12",
"7+	c #D7A964",
"8+	c #FFED83",
"9+	c #F9E580",
"0+	c #EED37B",
"a+	c #F4D77C",
"b+	c #FFD67B",
"c+	c #C39456",
"d+	c #83162B",
"e+	c #30111D",
"f+	c #68162A",
"g+	c #851A2A",
"h+	c #611529",
"i+	c #601225",
"j+	c #280D17",
"k+	c #9B6841",
"l+	c #ECB671",
"m+	c #FEE37F",
"n+	c #FFEB82",
"o+	c #FFEA82",
"p+	c #FFD37A",
"q+	c #F3C074",
"r+	c #DE9468",
"s+	c #BF8E74",
"t+	c #71453F",
"u+	c #2D0F1B",
"v+	c #69172B",
"w+	c #7C182D",
"x+	c #6D141E",
"y+	c #32101C",
"z+	c #280D18",
"A+	c #703C38",
"B+	c #B57155",
"C+	c #D98E63",
"D+	c #F1A06D",
"E+	c #E09366",
"F+	c #BF7A59",
"G+	c #B47353",
"H+	c #C97963",
"I+	c #AC7463",
"J+	c #CA997F",
"K+	c #3C0F1C",
"L+	c #61172A",
"M+	c #73172D",
"N+	c #871423",
"O+	c #351422",
"P+	c #542B29",
"Q+	c #663632",
"R+	c #AD6954",
"S+	c #D18562",
"T+	c #C47263",
"U+	c #926354",
"V+	c #735247",
"W+	c #561021",
"X+	c #501727",
"Y+	c #70172D",
"Z+	c #9A6758",
"`+	c #65473E",
" @	c #6A3934",
".@	c #884B45",
"+@	c #7D443F",
"@@	c #1A0A08",
"#@	c #331320",
"$@	c #571021",
"%@	c #4A1727",
"&@	c #4D1727",
"*@	c #9B6D5D",
"=@	c #825F50",
"-@	c #1C050C",
";@	c #671629",
">@	c #3A1725",
",@	c #381523",
"'@	c #B27A68",
")@	c #C4947B",
"!@	c #270D17",
"~@	c #2D040D",
"{@	c #3B1725",
"]@	c #411D24",
"^@	c #D99B83",
"/@	c #9A735F",
"(@	c #1E0911",
"_@	c #530E1E",
":@	c #581729",
"<@	c #472125",
"[@	c #E2A48A",
"}@	c #5A3D37",
"|@	c #030101",
"1@	c #5F1224",
"2@	c #3F1725",
"3@	c #935B50",
"4@	c #BE8F77",
"5@	c #361322",
"6@	c #2F050E",
"7@	c #671529",
"8@	c #3C1725",
"9@	c #A3695C",
"0@	c #61433B",
"a@	c #31121E",
"b@	c #480B19",
"c@	c #60172A",
"d@	c #37232B",
"e@	c #B1846E",
"f@	c #3A1624",
"g@	c #2C0F1A",
"h@	c #190205",
"i@	c #611225",
"j@	c #451726",
"k@	c #8E8C92",
"l@	c #938D92",
"m@	c #504349",
"n@	c #400916",
"o@	c #4F1727",
"p@	c #B0ABB1",
"q@	c #B8B8BF",
"r@	c #757579",
"                . + @ #                         ",
"                $ % & * = - ;                   ",
"              > , ' ) ! ~ { ] -                 ",
"              ^ / ( _ : < [ } |                 ",
"              1 2 3 4 5 6 7 8 9                 ",
"              - 0 a b c d e f g                 ",
"            h i j k l m n o p q r               ",
"          s t u v w x y z A B C D E             ",
"        F G H I J K L M N O P Q R S             ",
"        T U V W X Y Z `  ...+.@.#.              ",
"        $.V V %.&.*.=.-.;.>.,.'.).              ",
"    !.~.{.u V ].^./.(._.:.<.[.}.                ",
"  - |.1.2.V V 3.4.5.6.7.8.9.0.                  ",
"  a.b.V c.d.V e.f.g.h.i.j.k.l.m.                ",
"  n.o.V p.q.r.s.t.u.v.w.x.y.z.A.B.              ",
"  C.D.V V E.F.G.H.I.J.K.L.M.N.O.P.Q.            ",
"R.S.T.I V V V U.V.W.X.Y.Z.`. +.+++@+            ",
"#+$+%+&+*+=+V V V -+e.;+>+,+'+)+!+~+            ",
"{+]+V ^+/+(+_+:+<+[+}+|+1+2+3+4+5+6+            ",
"  7+8+V V -+9+0+a+b+c+d+e+f+g+h+i+j+            ",
"  k+l+m+n+n+o+p+q+r+s+t+u+v+w+x+y+z+            ",
"    A+B+C+D+E+F+G+H+I+J+K+L+M+N+O+z+            ",
"        P+Q+R+S+T+/.U+V+W+X+Y+Z+`+z+            ",
"             @.@+@@@- #@$@%@&@*@=@z+            ",
"                      -@;@>@,@'@)@!@            ",
"                      ~@L+{@]@^@/@(@            ",
"                      _@:@{@<@[@}@|@            ",
"                      1@2@{@3@4@5@|@            ",
"                    6@7@8@,@9@0@a@|@            ",
"                    b@c@{@d@e@f@g@              ",
"                  h@i@j@{@k@l@m@g@              ",
"                n@1@o@{@{@k@p@q@r@              "};
