/* XPM */
static char * player_idle_down_1_xpm[] = {
"32 32 18 1",
" 	c #38002C",
".	c #000000",
"+	c #ECFFE8",
"@	c #222A5C",
"#	c #FFEF76",
"$	c #FFB269",
"%	c #F16A62",
"&	c #00AF19",
"*	c #FF507B",
"=	c #A2ABC6",
"-	c #68104C",
";	c #FFC4A1",
">	c #B94B57",
",	c #9F0726",
"'	c #4B071B",
")	c #001313",
"!	c #F51321",
"~	c #E0E2EA",
"              .+.. @            ",
"    @          .##.             ",
"              . .$#.#.          ",
"    @         $$+.#+#+          ",
"  @@@         %$#.$+...    @@@@ ",
"     @         +.&.+...   @     ",
"      @      .+&.*$==$#  @      ",
"            +###-&%.##..@@      ",
"           .###$&.#$#... @      ",
"         @ +##$.#$##.;;  @      ",
"          @###%..$.%.;;  @@     ",
"         +####%%%$$#;    @      ",
"        .#####$.>$$.%           ",
"  @     +##.##$%%$..;;.         ",
"  @@    +##$.$##.%.,,,,         ",
"  @     .###$.$##$.,.',.        ",
" @@    .########%%.,))).    @@@@",
"  @    +#.$#######.,))). @      ",
"       $###%%$$$$.)'.,.'@       ",
"       .########.))'!','        ",
"     @  $######$)))',.''        ",
"      @@@.%$$%.$..)';..'        ",
"       @   ..$%%%...;;;'        ",
"       @     ..   .,..;'        ",
"       @          ,''.;'        ",
"       @          ,''%;.        ",
"        @         ,''%;.        ",
"@@               .''.;'.@     @@",
"                 .''..'        @",
"                 ,'';''         ",
"                .,''~.'         ",
"    @          .,'''~~.         "};
