/* XPM */
static char * wall_xpm[] = {
"32 32 5 1",
" 	c #000000",
".	c #566A89",
"+	c #8BABBF",
"@	c #222A5C",
"#	c #38002C",
"                                ",
" .++++++...++++++.+++...+++++++ ",
" ++++++++++++++++++++++++++++++ ",
" +++++++++++.+++.++++++++++++++ ",
" ...+++++++.++++++.+++.+++++++. ",
" .+++......@++++++..........+++ ",
" ++++...+++.....+.+++..+++.++++ ",
" +++.++....@....@@+++@++++.+++. ",
" +++@++....@....@@...@+++...... ",
" +++@......@..........@..++.+++ ",
" .+++...@@@@@.........@..++.+++ ",
" ++@@@@@@....@..@...@@@@@@@.+++ ",
" ++@...@@....@@.@@@@@...@.+..++ ",
" .+++...@@@@@@@@@@@@@...@.+.++. ",
" ++++@@@@@..@@..@@@@##@@@...+++ ",
" +++.....@...@@@@@@@@#@..@..+++ ",
" .++++.......@@@@@@.......++++. ",
" .++++.......@@@@@@.......+++++ ",
" .+++.@@@@@@@@@@#@@@......+++++ ",
" ..+.....@....@@@...@.....+++++ ",
" ++++....@....##@.....@@@@.++++ ",
" +++++...@@@#@@@@.....@....++++ ",
" .++++.....@#@@@@@@...@....++++ ",
" .++++@@@..@@@@@@@@@@@@....++++ ",
" +++++..@@@@#@@@@.....@....+++. ",
" +++++..@......@......@@....+++ ",
" ++++..........@......@@@@.++++ ",
" .++...@.......@...........++++ ",
" ++++@@@@@.....#...........+++. ",
" ++++++.++++++++.++++++++++++.. ",
" +++++.++++@+++++.+++.+++++++++ ",
"                                "};
